<mxfile host="Electron" modified="2024-01-21T05:34:46.630Z" agent="Mozilla/5.0 (Windows NT 10.0; Win64; x64) AppleWebKit/537.36 (KHTML, like Gecko) draw.io/22.1.21 Chrome/120.0.6099.109 Electron/28.1.0 Safari/537.36" etag="Lpro3Bhg9RjD2xQc8OZ5" version="22.1.21" type="device">
  <diagram name="第 1 页" id="R4Pbxxk95wvNyElzQDRb">
    <mxGraphModel dx="1418" dy="2109" grid="1" gridSize="10" guides="1" tooltips="1" connect="1" arrows="1" fold="1" page="1" pageScale="1" pageWidth="827" pageHeight="1169" math="0" shadow="0">
      <root>
        <mxCell id="0" />
        <mxCell id="1" parent="0" />
        <mxCell id="QbILOrZvAKMcAFdm_ZYz-6" value="" style="edgeStyle=orthogonalEdgeStyle;rounded=0;sketch=1;hachureGap=4;jiggle=2;curveFitting=1;orthogonalLoop=1;jettySize=auto;html=1;strokeColor=#182E3E;fontFamily=Architects Daughter;fontSource=https%3A%2F%2Ffonts.googleapis.com%2Fcss%3Ffamily%3DArchitects%2BDaughter;fontSize=20;fontColor=#1A1A1A;" edge="1" parent="1" source="QbILOrZvAKMcAFdm_ZYz-1" target="QbILOrZvAKMcAFdm_ZYz-5">
          <mxGeometry relative="1" as="geometry" />
        </mxCell>
        <mxCell id="QbILOrZvAKMcAFdm_ZYz-8" value="" style="edgeStyle=orthogonalEdgeStyle;rounded=0;sketch=1;hachureGap=4;jiggle=2;curveFitting=1;orthogonalLoop=1;jettySize=auto;html=1;strokeColor=#182E3E;fontFamily=Architects Daughter;fontSource=https%3A%2F%2Ffonts.googleapis.com%2Fcss%3Ffamily%3DArchitects%2BDaughter;fontSize=20;fontColor=#1A1A1A;" edge="1" parent="1" source="QbILOrZvAKMcAFdm_ZYz-1" target="QbILOrZvAKMcAFdm_ZYz-7">
          <mxGeometry relative="1" as="geometry" />
        </mxCell>
        <mxCell id="QbILOrZvAKMcAFdm_ZYz-10" value="" style="edgeStyle=orthogonalEdgeStyle;rounded=0;sketch=1;hachureGap=4;jiggle=2;curveFitting=1;orthogonalLoop=1;jettySize=auto;html=1;strokeColor=#182E3E;fontFamily=Architects Daughter;fontSource=https%3A%2F%2Ffonts.googleapis.com%2Fcss%3Ffamily%3DArchitects%2BDaughter;fontSize=20;fontColor=#1A1A1A;" edge="1" parent="1" source="QbILOrZvAKMcAFdm_ZYz-1" target="QbILOrZvAKMcAFdm_ZYz-9">
          <mxGeometry relative="1" as="geometry" />
        </mxCell>
        <mxCell id="QbILOrZvAKMcAFdm_ZYz-12" value="" style="edgeStyle=orthogonalEdgeStyle;rounded=0;sketch=1;hachureGap=4;jiggle=2;curveFitting=1;orthogonalLoop=1;jettySize=auto;html=1;strokeColor=#182E3E;fontFamily=Architects Daughter;fontSource=https%3A%2F%2Ffonts.googleapis.com%2Fcss%3Ffamily%3DArchitects%2BDaughter;fontSize=20;fontColor=#1A1A1A;" edge="1" parent="1" source="QbILOrZvAKMcAFdm_ZYz-1" target="QbILOrZvAKMcAFdm_ZYz-11">
          <mxGeometry relative="1" as="geometry" />
        </mxCell>
        <mxCell id="QbILOrZvAKMcAFdm_ZYz-1" value="&lt;h1 style=&quot;&quot;&gt;Agent&lt;/h1&gt;" style="text;html=1;strokeColor=none;fillColor=none;spacing=5;spacingTop=-20;whiteSpace=wrap;overflow=hidden;rounded=0;fontSize=20;fontFamily=Architects Daughter;fontColor=#1A1A1A;align=center;" vertex="1" parent="1">
          <mxGeometry x="319" y="390" width="190" height="120" as="geometry" />
        </mxCell>
        <mxCell id="QbILOrZvAKMcAFdm_ZYz-23" style="edgeStyle=orthogonalEdgeStyle;rounded=0;sketch=1;hachureGap=4;jiggle=2;curveFitting=1;orthogonalLoop=1;jettySize=auto;html=1;entryX=0.5;entryY=1;entryDx=0;entryDy=0;strokeColor=#182E3E;fontFamily=Architects Daughter;fontSource=https%3A%2F%2Ffonts.googleapis.com%2Fcss%3Ffamily%3DArchitects%2BDaughter;fontSize=20;fontColor=#1A1A1A;" edge="1" parent="1" source="QbILOrZvAKMcAFdm_ZYz-5" target="QbILOrZvAKMcAFdm_ZYz-22">
          <mxGeometry relative="1" as="geometry" />
        </mxCell>
        <mxCell id="QbILOrZvAKMcAFdm_ZYz-5" value="&lt;h1 style=&quot;&quot;&gt;Observation&lt;/h1&gt;" style="text;html=1;strokeColor=none;fillColor=none;spacing=5;spacingTop=-20;whiteSpace=wrap;overflow=hidden;rounded=0;fontSize=20;fontFamily=Architects Daughter;fontColor=#1A1A1A;align=center;" vertex="1" parent="1">
          <mxGeometry x="288" y="190" width="251" height="110" as="geometry" />
        </mxCell>
        <mxCell id="QbILOrZvAKMcAFdm_ZYz-16" value="" style="edgeStyle=orthogonalEdgeStyle;rounded=0;sketch=1;hachureGap=4;jiggle=2;curveFitting=1;orthogonalLoop=1;jettySize=auto;html=1;strokeColor=#182E3E;fontFamily=Architects Daughter;fontSource=https%3A%2F%2Ffonts.googleapis.com%2Fcss%3Ffamily%3DArchitects%2BDaughter;fontSize=20;fontColor=#1A1A1A;" edge="1" parent="1" source="QbILOrZvAKMcAFdm_ZYz-7">
          <mxGeometry relative="1" as="geometry">
            <mxPoint x="142" y="650" as="targetPoint" />
          </mxGeometry>
        </mxCell>
        <mxCell id="QbILOrZvAKMcAFdm_ZYz-7" value="&lt;h1 style=&quot;&quot;&gt;Thought&amp;nbsp;&lt;/h1&gt;" style="text;html=1;strokeColor=none;fillColor=none;spacing=5;spacingTop=-20;whiteSpace=wrap;overflow=hidden;rounded=0;fontSize=20;fontFamily=Architects Daughter;fontColor=#1A1A1A;align=center;" vertex="1" parent="1">
          <mxGeometry x="49" y="390" width="190" height="120" as="geometry" />
        </mxCell>
        <mxCell id="QbILOrZvAKMcAFdm_ZYz-21" style="edgeStyle=orthogonalEdgeStyle;rounded=0;sketch=1;hachureGap=4;jiggle=2;curveFitting=1;orthogonalLoop=1;jettySize=auto;html=1;strokeColor=#182E3E;fontFamily=Architects Daughter;fontSource=https%3A%2F%2Ffonts.googleapis.com%2Fcss%3Ffamily%3DArchitects%2BDaughter;fontSize=20;fontColor=#1A1A1A;" edge="1" parent="1" source="QbILOrZvAKMcAFdm_ZYz-9" target="QbILOrZvAKMcAFdm_ZYz-20">
          <mxGeometry relative="1" as="geometry" />
        </mxCell>
        <mxCell id="QbILOrZvAKMcAFdm_ZYz-9" value="&lt;h1 style=&quot;&quot;&gt;Action&amp;nbsp;&lt;/h1&gt;" style="text;html=1;strokeColor=none;fillColor=none;spacing=5;spacingTop=-20;whiteSpace=wrap;overflow=hidden;rounded=0;fontSize=20;fontFamily=Architects Daughter;fontColor=#1A1A1A;align=center;" vertex="1" parent="1">
          <mxGeometry x="589" y="390" width="190" height="120" as="geometry" />
        </mxCell>
        <mxCell id="QbILOrZvAKMcAFdm_ZYz-19" style="edgeStyle=orthogonalEdgeStyle;rounded=0;sketch=1;hachureGap=4;jiggle=2;curveFitting=1;orthogonalLoop=1;jettySize=auto;html=1;strokeColor=#182E3E;fontFamily=Architects Daughter;fontSource=https%3A%2F%2Ffonts.googleapis.com%2Fcss%3Ffamily%3DArchitects%2BDaughter;fontSize=20;fontColor=#1A1A1A;" edge="1" parent="1" source="QbILOrZvAKMcAFdm_ZYz-11" target="QbILOrZvAKMcAFdm_ZYz-18">
          <mxGeometry relative="1" as="geometry" />
        </mxCell>
        <mxCell id="QbILOrZvAKMcAFdm_ZYz-25" style="edgeStyle=orthogonalEdgeStyle;rounded=0;sketch=1;hachureGap=4;jiggle=2;curveFitting=1;orthogonalLoop=1;jettySize=auto;html=1;entryX=0.5;entryY=0;entryDx=0;entryDy=0;strokeColor=#182E3E;fontFamily=Architects Daughter;fontSource=https%3A%2F%2Ffonts.googleapis.com%2Fcss%3Ffamily%3DArchitects%2BDaughter;fontSize=20;fontColor=#1A1A1A;" edge="1" parent="1" source="QbILOrZvAKMcAFdm_ZYz-11" target="QbILOrZvAKMcAFdm_ZYz-24">
          <mxGeometry relative="1" as="geometry" />
        </mxCell>
        <mxCell id="QbILOrZvAKMcAFdm_ZYz-11" value="&lt;h1 style=&quot;&quot;&gt;Memory&lt;/h1&gt;" style="text;html=1;strokeColor=none;fillColor=none;spacing=5;spacingTop=-20;whiteSpace=wrap;overflow=hidden;rounded=0;fontSize=20;fontFamily=Architects Daughter;fontColor=#1A1A1A;align=center;" vertex="1" parent="1">
          <mxGeometry x="319" y="590" width="190" height="120" as="geometry" />
        </mxCell>
        <mxCell id="QbILOrZvAKMcAFdm_ZYz-17" value="通过Role的_think()来实现" style="text;html=1;strokeColor=none;fillColor=none;align=center;verticalAlign=middle;whiteSpace=wrap;rounded=0;fontSize=20;fontFamily=Architects Daughter;fontColor=#1A1A1A;" vertex="1" parent="1">
          <mxGeometry x="49" y="650" width="196" height="100" as="geometry" />
        </mxCell>
        <mxCell id="QbILOrZvAKMcAFdm_ZYz-18" value="短期记忆通过Environment与Memory来实现" style="text;html=1;strokeColor=none;fillColor=none;align=center;verticalAlign=middle;whiteSpace=wrap;rounded=0;fontSize=20;fontFamily=Architects Daughter;fontColor=#1A1A1A;" vertex="1" parent="1">
          <mxGeometry x="660" y="567.5" width="126" height="165" as="geometry" />
        </mxCell>
        <mxCell id="QbILOrZvAKMcAFdm_ZYz-20" value="Action本身&lt;br&gt;新加入的ActionNode看起来是为了保证Action的稳定性" style="text;html=1;strokeColor=none;fillColor=none;align=center;verticalAlign=middle;whiteSpace=wrap;rounded=0;fontSize=20;fontFamily=Architects Daughter;fontColor=#1A1A1A;" vertex="1" parent="1">
          <mxGeometry x="621" y="135" width="126" height="165" as="geometry" />
        </mxCell>
        <mxCell id="QbILOrZvAKMcAFdm_ZYz-22" value="通过Role的Publish_message来向外通知，Pull_message来感知外界" style="text;html=1;strokeColor=none;fillColor=none;align=center;verticalAlign=middle;whiteSpace=wrap;rounded=0;fontSize=20;fontFamily=Architects Daughter;fontColor=#1A1A1A;" vertex="1" parent="1">
          <mxGeometry x="351" y="-30" width="126" height="165" as="geometry" />
        </mxCell>
        <mxCell id="QbILOrZvAKMcAFdm_ZYz-24" value="长期记忆目前看可通过引用的langchian来实现，同时Environment模块可将当前发生内容保存到本地，也可视为长期记忆的一种" style="text;html=1;strokeColor=none;fillColor=none;align=center;verticalAlign=middle;whiteSpace=wrap;rounded=0;fontSize=20;fontFamily=Architects Daughter;fontColor=#1A1A1A;" vertex="1" parent="1">
          <mxGeometry x="249.5" y="770" width="329" height="150" as="geometry" />
        </mxCell>
      </root>
    </mxGraphModel>
  </diagram>
</mxfile>
